TITLE ""
FILE "Disc4Track39.mp3" MP3
  TRACK 01 AUDIO
    TITLE "Disc4Track39_01"
    INDEX 01 00:00:00
  TRACK 02 AUDIO
    TITLE "Disc4Track39_02"
    INDEX 01 00:01:23
  TRACK 03 AUDIO
    TITLE "Disc4Track39_03"
    INDEX 01 00:02:25
  TRACK 04 AUDIO
    TITLE "Disc4Track39_04"
    INDEX 01 00:03:58
  TRACK 05 AUDIO
    TITLE "Disc4Track39_05"
    INDEX 01 00:07:20
  TRACK 06 AUDIO
    TITLE "Disc4Track39_06"
    INDEX 01 00:07:51
  TRACK 07 AUDIO
    TITLE "Disc4Track39_07"
    INDEX 01 00:09:03
  TRACK 08 AUDIO
    TITLE "Disc4Track39_08"
    INDEX 01 00:11:45
  TRACK 09 AUDIO
    TITLE "Disc4Track39_09"
    INDEX 01 00:12:70
  TRACK 10 AUDIO
    TITLE "Disc4Track39_10"
    INDEX 01 00:16:35
  TRACK 11 AUDIO
    TITLE "Disc4Track39_11"
    INDEX 01 00:16:66
  TRACK 12 AUDIO
    TITLE "Disc4Track39_12"
    INDEX 01 00:18:04
  TRACK 13 AUDIO
    TITLE "Disc4Track39_13"
    INDEX 01 00:20:44
  TRACK 14 AUDIO
    TITLE "Disc4Track39_14"
    INDEX 01 00:21:58
  TRACK 15 AUDIO
    TITLE "Disc4Track39_15"
    INDEX 01 00:25:55
  TRACK 16 AUDIO
    TITLE "Disc4Track39_16"
    INDEX 01 00:26:14
  TRACK 17 AUDIO
    TITLE "Disc4Track39_17"
    INDEX 01 00:27:39
  TRACK 18 AUDIO
    TITLE "Disc4Track39_18"
    INDEX 01 00:29:39
  TRACK 19 AUDIO
    TITLE "Disc4Track39_19"
    INDEX 01 00:30:66
  TRACK 20 AUDIO
    TITLE "Disc4Track39_20"
    INDEX 01 00:31:30
  TRACK 21 AUDIO
    TITLE "Disc4Track39_21"
    INDEX 01 00:32:34
  TRACK 22 AUDIO
    TITLE "Disc4Track39_22"
    INDEX 01 00:33:67
  TRACK 23 AUDIO
    TITLE "Disc4Track39_23"
    INDEX 01 00:34:68
  TRACK 24 AUDIO
    TITLE "Disc4Track39_24"
    INDEX 01 00:36:36
  TRACK 25 AUDIO
    TITLE "Disc4Track39_25"
    INDEX 01 00:36:69
  TRACK 26 AUDIO
    TITLE "Disc4Track39_26"
    INDEX 01 00:37:74
  TRACK 27 AUDIO
    TITLE "Disc4Track39_27"
    INDEX 01 00:39:12
  TRACK 28 AUDIO
    TITLE "Disc4Track39_28"
    INDEX 01 00:40:20
  TRACK 29 AUDIO
    TITLE "Disc4Track39_29"
    INDEX 01 00:40:57
  TRACK 30 AUDIO
    TITLE "Disc4Track39_30"
    INDEX 01 00:41:70
  TRACK 31 AUDIO
    TITLE "Disc4Track39_31"
    INDEX 01 00:42:50
  TRACK 32 AUDIO
    TITLE "Disc4Track39_32"
    INDEX 01 00:43:61
  TRACK 33 AUDIO
    TITLE "Disc4Track39_33"
    INDEX 01 00:45:50
  TRACK 34 AUDIO
    TITLE "Disc4Track39_34"
    INDEX 01 00:46:06
  TRACK 35 AUDIO
    TITLE "Disc4Track39_35"
    INDEX 01 00:47:27
  TRACK 36 AUDIO
    TITLE "Disc4Track39_36"
    INDEX 01 00:50:18
  TRACK 37 AUDIO
    TITLE "Disc4Track39_37"
    INDEX 01 00:51:35
  TRACK 38 AUDIO
    TITLE "Disc4Track39_38"
    INDEX 01 00:54:69
  TRACK 39 AUDIO
    TITLE "Disc4Track39_39"
    INDEX 01 00:54:71
  TRACK 40 AUDIO
    TITLE "Disc4Track39_40"
    INDEX 01 00:56:15
  TRACK 41 AUDIO
    TITLE "Disc4Track39_41"
    INDEX 01 00:57:65
  TRACK 42 AUDIO
    TITLE "Disc4Track39_42"
    INDEX 01 00:59:11
  TRACK 43 AUDIO
    TITLE "Disc4Track39_43"
    INDEX 01 01:01:24
